<svg width="24" height="25" viewBox="0 0 24 25" fill="none" xmlns="http://www.w3.org/2000/svg">
<path d="M2 20.5C1.45 20.5 0.979167 20.3042 0.5875 19.9125C0.195833 19.5208 0 19.05 0 18.5H4C3.45 18.5 2.97917 18.3042 2.5875 17.9125C2.19583 17.5208 2 17.05 2 16.5V5.5C2 4.95 2.19583 4.47917 2.5875 4.0875C2.97917 3.69583 3.45 3.5 4 3.5H20C20.55 3.5 21.0208 3.69583 21.4125 4.0875C21.8042 4.47917 22 4.95 22 5.5V16.5C22 17.05 21.8042 17.5208 21.4125 17.9125C21.0208 18.3042 20.55 18.5 20 18.5H24C24 19.05 23.8042 19.5208 23.4125 19.9125C23.0208 20.3042 22.55 20.5 22 20.5H2ZM12 19.5C12.2833 19.5 12.5208 19.4042 12.7125 19.2125C12.9042 19.0208 13 18.7833 13 18.5C13 18.2167 12.9042 17.9792 12.7125 17.7875C12.5208 17.5958 12.2833 17.5 12 17.5C11.7167 17.5 11.4792 17.5958 11.2875 17.7875C11.0958 17.9792 11 18.2167 11 18.5C11 18.7833 11.0958 19.0208 11.2875 19.2125C11.4792 19.4042 11.7167 19.5 12 19.5ZM4 16.5H20V5.5H4V16.5Z" fill="#AA89C9"/>
</svg>
