<svg width="24" height="25" viewBox="0 0 24 25" fill="none" xmlns="http://www.w3.org/2000/svg">
<path d="M7 22.5C8.03333 22.5 8.87917 22.2416 9.5375 21.725C10.1958 21.2083 10.7 20.45 11.05 19.45C11.3333 18.6166 11.6042 18.0333 11.8625 17.7C12.1208 17.3666 12.7167 16.8333 13.65 16.1C14.6833 15.2666 15.5 14.325 16.1 13.275C16.7 12.225 17 10.9666 17 9.49995C17 7.51662 16.3292 5.85412 14.9875 4.51245C13.6458 3.17078 11.9833 2.49995 10 2.49995C8.01667 2.49995 6.35417 3.17078 5.0125 4.51245C3.67083 5.85412 3 7.51662 3 9.49995H5C5 8.08328 5.47917 6.89578 6.4375 5.93745C7.39583 4.97912 8.58333 4.49995 10 4.49995C11.4167 4.49995 12.6042 4.97912 13.5625 5.93745C14.5208 6.89578 15 8.08328 15 9.49995C15 10.6333 14.775 11.6 14.325 12.4C13.875 13.2 13.2333 13.9166 12.4 14.55C11.5333 15.1833 10.8583 15.8 10.375 16.4C9.89167 17 9.53333 17.65 9.3 18.35C9.06667 19.0833 8.7875 19.625 8.4625 19.975C8.1375 20.325 7.65 20.5 7 20.5C6.45 20.5 5.97917 20.3041 5.5875 19.9125C5.19583 19.5208 5 19.05 5 18.5H3C3 19.6 3.39167 20.5416 4.175 21.325C4.95833 22.1083 5.9 22.5 7 22.5ZM17.8 17.25C18.7833 16.25 19.5625 15.0875 20.1375 13.7625C20.7125 12.4375 21 11.0166 21 9.49995C21 7.96662 20.7125 6.53329 20.1375 5.19995C19.5625 3.86662 18.7833 2.69995 17.8 1.69995L16.35 3.09995C17.1833 3.93328 17.8333 4.89578 18.3 5.98745C18.7667 7.07912 19 8.24995 19 9.49995C19 10.7333 18.7667 11.8916 18.3 12.975C17.8333 14.0583 17.1833 15.0166 16.35 15.85L17.8 17.25ZM10 12C10.7 12 11.2917 11.7541 11.775 11.2625C12.2583 10.7708 12.5 10.1833 12.5 9.49995C12.5 8.79995 12.2583 8.20829 11.775 7.72495C11.2917 7.24162 10.7 6.99995 10 6.99995C9.3 6.99995 8.70833 7.24162 8.225 7.72495C7.74167 8.20829 7.5 8.79995 7.5 9.49995C7.5 10.1833 7.74167 10.7708 8.225 11.2625C8.70833 11.7541 9.3 12 10 12Z" fill="#AA89C9"/>
</svg>
