<svg width="32" height="32" viewBox="0 0 32 32" fill="none" xmlns="http://www.w3.org/2000/svg">
<g clip-path="url(#clip0_2522_343)">
<path d="M5.33335 26.6667C4.60002 26.6667 3.97224 26.4056 3.45002 25.8834C2.9278 25.3612 2.66669 24.7334 2.66669 24V8.00004C2.66669 7.26671 2.9278 6.63893 3.45002 6.11671C3.97224 5.59449 4.60002 5.33337 5.33335 5.33337H26.6667C27.4 5.33337 28.0278 5.59449 28.55 6.11671C29.0722 6.63893 29.3334 7.26671 29.3334 8.00004V24C29.3334 24.7334 29.0722 25.3612 28.55 25.8834C28.0278 26.4056 27.4 26.6667 26.6667 26.6667H5.33335ZM16 17.3334L5.33335 10.6667V24H26.6667V10.6667L16 17.3334ZM16 14.6667L26.6667 8.00004H5.33335L16 14.6667ZM5.33335 10.6667V8.00004V24V10.6667Z" fill="#AA89C9"/>
<path d="M-13.7778 -236.444C-121.867 -218.844 -205.778 -137.956 -227.111 -30.7555C-231.022 -11.5555 -232.444 25.6 -229.956 44.4445C-217.689 139.378 -161.511 214.578 -74.5778 252.089L-58.5778 258.844L-54.1334 254.756C-45.0667 246.4 -43.4667 236.622 -45.9556 204.444L-47.2 190.222H-68.7112C-89.5111 190.222 -90.7556 190.044 -102.133 184.356C-116 177.6 -121.333 171.378 -131.822 150.756C-138.933 136.356 -145.867 128 -159.556 116.978C-166.489 111.467 -166.489 111.111 -163.289 108.444C-158.844 105.067 -151.378 105.067 -143.378 108.444C-134.133 112.178 -129.511 116.444 -116.356 132.8C-101.067 151.822 -92.5334 156.444 -73.3334 156.267C-57.6889 156.267 -45.0667 153.067 -43.8223 148.8C-40.6223 139.022 -36.1778 130.667 -30.1334 124.267L-23.5556 116.978L-33.8667 115.733C-53.0667 113.6 -74.0445 107.556 -91.1111 99.2C-120.978 84.8 -138.933 62.5778 -148.356 28.0889C-151.556 16.5334 -152.089 9.24448 -152.267 -15.1111C-152.267 -51.9111 -149.778 -59.9111 -130.578 -85.1555C-126.311 -91.0222 -125.6 -93.1555 -126.844 -97.2444C-131.644 -113.956 -130.222 -143.289 -123.822 -159.111C-121.511 -164.978 -120.089 -166.222 -116.178 -166.222C-102.844 -166.222 -76.3556 -155.911 -56.4445 -143.111L-45.7778 -136.356L-32.4445 -139.911C-20.8889 -143.111 -13.7778 -143.644 20 -143.822C45.7777 -144 63.7333 -143.111 72.4444 -141.689L85.7777 -139.2L98.2222 -146.311C117.956 -157.689 136.089 -164.8 148.178 -165.867L159.022 -166.578L162.4 -158.933C165.244 -152.356 165.778 -146.667 165.778 -123.556V-96L173.244 -86.2222C187.289 -67.3777 193.867 -49.6 196 -24C197.422 -9.24442 194.755 18.6667 190.489 36.4445C179.111 82.4889 147.644 106.133 85.9555 114.844L71.2 116.978L77.7777 122.844C81.511 126.222 86.3111 133.156 88.6222 138.311C92.5333 147.022 92.8888 150.044 93.7777 196.444C94.6666 248.533 95.0222 249.778 104.089 256.178C107.111 258.311 108.889 257.956 118.489 254.222C186.933 227.556 243.822 167.467 266.933 97.9556C276.533 69.1556 279.378 50.6667 279.378 16.8889C279.378 -5.86664 278.667 -18.4889 276.355 -30.0444C265.867 -82.3111 242.4 -126.4 205.067 -163.733C168.444 -200.178 126.311 -223.289 76.3555 -233.956C53.4222 -238.756 8.62218 -240 -13.7778 -236.444Z" fill="#AA89C9"/>
</g>
<defs>
<clipPath id="clip0_2522_343">
<rect width="32" height="32" fill="white"/>
</clipPath>
</defs>
</svg>
