<svg width="32" height="32" viewBox="0 0 32 32" fill="none" xmlns="http://www.w3.org/2000/svg">
<path d="M13.85 2.15001C7.77001 3.14001 3.05001 7.69001 1.85001 13.72C1.63001 14.8 1.55001 16.89 1.69001 17.95C2.38001 23.29 5.54001 27.52 10.43 29.63L11.33 30.01L11.58 29.78C12.09 29.31 12.18 28.76 12.04 26.95L11.97 26.15H10.76C9.59001 26.15 9.52001 26.14 8.88001 25.82C8.10001 25.44 7.80001 25.09 7.21001 23.93C6.81001 23.12 6.42001 22.65 5.65001 22.03C5.26001 21.72 5.26001 21.7 5.44001 21.55C5.69001 21.36 6.11001 21.36 6.56001 21.55C7.08001 21.76 7.34001 22 8.08001 22.92C8.94001 23.99 9.42001 24.25 10.5 24.24C11.38 24.24 12.09 24.06 12.16 23.82C12.34 23.27 12.59 22.8 12.93 22.44L13.3 22.03L12.72 21.96C11.64 21.84 10.46 21.5 9.50001 21.03C7.82001 20.22 6.81001 18.97 6.28001 17.03C6.10001 16.38 6.07001 15.97 6.06001 14.6C6.06001 12.53 6.20001 12.08 7.28001 10.66C7.52001 10.33 7.56001 10.21 7.49001 9.98001C7.22001 9.04001 7.30001 7.39001 7.66001 6.50001C7.79001 6.17001 7.87001 6.10001 8.09001 6.10001C8.84001 6.10001 10.33 6.68001 11.45 7.40001L12.05 7.78001L12.8 7.58001C13.45 7.40001 13.85 7.37001 15.75 7.36001C17.2 7.35001 18.21 7.40001 18.7 7.48001L19.45 7.62001L20.15 7.22001C21.26 6.58001 22.28 6.18001 22.96 6.12001L23.57 6.08001L23.76 6.51001C23.92 6.88001 23.95 7.20001 23.95 8.50001V10.05L24.37 10.6C25.16 11.66 25.53 12.66 25.65 14.1C25.73 14.93 25.58 16.5 25.34 17.5C24.7 20.09 22.93 21.42 19.46 21.91L18.63 22.03L19 22.36C19.21 22.55 19.48 22.94 19.61 23.23C19.83 23.72 19.85 23.89 19.9 26.5C19.95 29.43 19.97 29.5 20.48 29.86C20.65 29.98 20.75 29.96 21.29 29.75C25.14 28.25 28.34 24.87 29.64 20.96C30.18 19.34 30.34 18.3 30.34 16.4C30.34 15.12 30.3 14.41 30.17 13.76C29.58 10.82 28.26 8.34001 26.16 6.24001C24.1 4.19001 21.73 2.89001 18.92 2.29001C17.63 2.02001 15.11 1.95001 13.85 2.15001Z" fill="#AA89C9"/>
</svg>
