<svg width="32" height="32" viewBox="0 0 32 32" fill="none" xmlns="http://www.w3.org/2000/svg">
<path d="M5.01248 2.64998C3.86248 2.93123 2.86873 3.95623 2.63123 5.11248C2.53748 5.58123 2.53748 26.4187 2.63123 26.8875C2.87498 28.075 3.92498 29.125 5.11248 29.3687C5.34373 29.4187 8.61873 29.4375 16.0187 29.4375C27.65 29.4375 27 29.4562 27.7562 29.0562C28.5187 28.65 29.1937 27.7437 29.3687 26.8875C29.4625 26.4187 29.4625 5.58123 29.3687 5.11248C29.1937 4.25624 28.5187 3.34999 27.7562 2.94374C27 2.54373 27.6562 2.56248 15.9687 2.56874C7.57498 2.57498 5.27498 2.58748 5.01248 2.64998ZM9.66873 7.78123C11.1562 8.22499 11.2937 10.0625 9.88123 10.7125C9.64998 10.8125 9.46873 10.8437 8.96873 10.8437C8.41248 10.8437 8.30623 10.8187 7.98748 10.6687C7.00623 10.1875 6.74373 9.00624 7.45623 8.26248C7.94373 7.74998 8.88123 7.54373 9.66873 7.78123ZM10.875 18.875V24.9375H8.96873H7.06248V18.875V12.8125H8.96873H10.875V18.875ZM16.625 13.5937C16.625 14.025 16.6375 14.375 16.6437 14.375C16.6562 14.375 16.7937 14.2625 16.9437 14.1187C17.5062 13.5937 18.2937 13.1625 19.0625 12.9562C19.6375 12.8 21.0625 12.8 21.625 12.9562C22.3937 13.1687 22.9187 13.475 23.5062 14.0562C24.1375 14.6937 24.4812 15.3 24.7375 16.2375L24.9062 16.8437L24.925 20.8875L24.9437 24.9375H23.0375H21.1312L21.1125 21.3875C21.0937 17.9312 21.0875 17.8375 20.9562 17.4875C20.7625 16.9687 20.475 16.5875 20.1062 16.3437C19.6812 16.0687 19.3 15.9812 18.6687 16.0125C17.825 16.0562 17.3 16.4187 16.9312 17.2187C16.8375 17.425 16.725 17.775 16.6937 18C16.65 18.2437 16.625 19.725 16.625 21.6687V24.9375H14.7187H12.8125V18.875V12.8125H14.7187H16.625V13.5937Z" fill="#AA89C9"/>
</svg>
