<svg width="24" height="25" viewBox="0 0 24 25" fill="none" xmlns="http://www.w3.org/2000/svg">
<path d="M7 23.5C6.45 23.5 5.97917 23.3042 5.5875 22.9125C5.19583 22.5208 5 22.05 5 21.5V3.5C5 2.95 5.19583 2.47917 5.5875 2.0875C5.97917 1.69583 6.45 1.5 7 1.5H17C17.55 1.5 18.0208 1.69583 18.4125 2.0875C18.8042 2.47917 19 2.95 19 3.5V6.6C19.3 6.71667 19.5417 6.9 19.725 7.15C19.9083 7.4 20 7.68333 20 8V10C20 10.3167 19.9083 10.6 19.725 10.85C19.5417 11.1 19.3 11.2833 19 11.4V21.5C19 22.05 18.8042 22.5208 18.4125 22.9125C18.0208 23.3042 17.55 23.5 17 23.5H7ZM7 21.5H17V3.5H7V21.5ZM10 20.5H14C14.2833 20.5 14.5208 20.4042 14.7125 20.2125C14.9042 20.0208 15 19.7833 15 19.5C15 19.2167 14.9042 18.9792 14.7125 18.7875C14.5208 18.5958 14.2833 18.5 14 18.5H10C9.71667 18.5 9.47917 18.5958 9.2875 18.7875C9.09583 18.9792 9 19.2167 9 19.5C9 19.7833 9.09583 20.0208 9.2875 20.2125C9.47917 20.4042 9.71667 20.5 10 20.5Z" fill="#AA89C9"/>
</svg>
